# xmcd
#
# Track frame offsets:
# 150
# 9432
# 27800
# 43393
# 62063
# 81382
# 97287
# 114544
# 129762
# 147457
# 163645
#
# Disc length: 2425 seconds
#
#
# Revision: 0
# Processed by: cddbd v1.5.2PL0 Copyright (c) Steve Scherf et al.
# Submitted via: FreeRIP 2.951 
#
DISCID=9609770b
DTITLE=Nickelback - The Long Road
DYEAR=1900
DGENRE=Rock
TTITLE0=01-Flat On The Floor
TTITLE1=02-Do This Anymore
TTITLE2=03-Someday
TTITLE3=04-Believe It Or Not
TTITLE4=05-Feelin' Way Too Damn Good
TTITLE5=06-Because Of You
TTITLE6=07-Figured You Out
TTITLE7=09-Shoud've Listened
TTITLE8=09-Throw Yoursel Away
TTITLE9=10-Another Hole In The Head
TTITLE10=11-See You At The Show
EXTD=
EXTT0=
EXTT1=
EXTT2=
EXTT3=
EXTT4=
EXTT5=
EXTT6=
EXTT7=
EXTT8=
EXTT9=
EXTT10=
PLAYORDER=
